<svg width="54" height="55" viewBox="0 0 54 55" fill="none" xmlns="http://www.w3.org/2000/svg">
<path d="M53.5 27.5C53.5 42.4204 41.6269 54.5 27 54.5C12.3731 54.5 0.5 42.4204 0.5 27.5C0.5 12.5796 12.3731 0.5 27 0.5C41.6269 0.5 53.5 12.5796 53.5 27.5Z" fill="#F6F6F5" stroke="#9B5579"/>
<path d="M48.5 27.5C48.5 39.5883 38.8529 49.3491 27 49.3491C15.1471 49.3491 5.5 39.5883 5.5 27.5C5.5 15.4117 15.1471 5.65094 27 5.65094C38.8529 5.65094 48.5 15.4117 48.5 27.5Z" fill="#972F9F" stroke="#F6B6E7" stroke-width="3"/>
<ellipse cx="27" cy="27.5" rx="19" ry="19.1981" fill="#FEAFEA"/>
<mask id="path-4-outside-1_2001_2" maskUnits="userSpaceOnUse" x="19" y="12.3019" width="17" height="29" fill="black">
<rect fill="white" x="19" y="12.3019" width="17" height="29"/>
<path d="M25.6407 23.3119C25.9007 22.6519 26.5207 22.2019 27.5007 21.9619C28.4207 21.7219 29.2807 21.7519 30.0807 22.0519C30.9007 22.3719 31.2707 22.8919 31.1907 23.6119C30.9707 24.3119 30.6907 25.1719 30.3507 26.1919C30.0307 27.1919 29.7207 28.2219 29.4207 29.2819C28.6207 32.0019 28.1607 33.9219 28.0407 35.0419C27.7407 36.8419 27.2407 37.8119 26.5407 37.9519C26.3407 37.9919 26.1507 38.0219 25.9707 38.0419C25.5307 38.0619 25.2507 38.1819 25.1307 38.4019C25.0107 38.6219 24.8107 38.7819 24.5307 38.8819C24.2507 39.0019 23.9407 39.0519 23.6007 39.0319C23.2807 39.0319 22.9507 38.9519 22.6107 38.7919C22.2707 38.6519 21.9807 38.4419 21.7407 38.1619C21.1807 37.4819 21.0707 36.5719 21.4107 35.4319C21.7307 33.2519 22.5407 30.4819 23.8407 27.1219C24.4607 25.4619 25.0607 24.1919 25.6407 23.3119ZM31.3107 18.8119C30.3307 19.0119 29.5307 18.9519 28.9107 18.6319C28.3107 18.3119 27.9607 17.9319 27.8607 17.4919C27.7607 17.0319 27.9007 16.5619 28.2807 16.0819C28.7207 15.4819 29.3807 15.0919 30.2607 14.9119C30.6607 14.8719 30.9507 14.8519 31.1307 14.8519C31.3107 14.8519 31.5307 14.8919 31.7907 14.9719C32.4507 15.0319 32.8807 15.3219 33.0807 15.8419C33.3607 16.2819 33.3807 16.7819 33.1407 17.3419C32.9207 17.9019 32.3107 18.3919 31.3107 18.8119Z"/>
</mask>
<path d="M25.6407 23.3119C25.9007 22.6519 26.5207 22.2019 27.5007 21.9619C28.4207 21.7219 29.2807 21.7519 30.0807 22.0519C30.9007 22.3719 31.2707 22.8919 31.1907 23.6119C30.9707 24.3119 30.6907 25.1719 30.3507 26.1919C30.0307 27.1919 29.7207 28.2219 29.4207 29.2819C28.6207 32.0019 28.1607 33.9219 28.0407 35.0419C27.7407 36.8419 27.2407 37.8119 26.5407 37.9519C26.3407 37.9919 26.1507 38.0219 25.9707 38.0419C25.5307 38.0619 25.2507 38.1819 25.1307 38.4019C25.0107 38.6219 24.8107 38.7819 24.5307 38.8819C24.2507 39.0019 23.9407 39.0519 23.6007 39.0319C23.2807 39.0319 22.9507 38.9519 22.6107 38.7919C22.2707 38.6519 21.9807 38.4419 21.7407 38.1619C21.1807 37.4819 21.0707 36.5719 21.4107 35.4319C21.7307 33.2519 22.5407 30.4819 23.8407 27.1219C24.4607 25.4619 25.0607 24.1919 25.6407 23.3119ZM31.3107 18.8119C30.3307 19.0119 29.5307 18.9519 28.9107 18.6319C28.3107 18.3119 27.9607 17.9319 27.8607 17.4919C27.7607 17.0319 27.9007 16.5619 28.2807 16.0819C28.7207 15.4819 29.3807 15.0919 30.2607 14.9119C30.6607 14.8719 30.9507 14.8519 31.1307 14.8519C31.3107 14.8519 31.5307 14.8919 31.7907 14.9719C32.4507 15.0319 32.8807 15.3219 33.0807 15.8419C33.3607 16.2819 33.3807 16.7819 33.1407 17.3419C32.9207 17.9019 32.3107 18.3919 31.3107 18.8119Z" fill="#972F9F"/>
<path d="M25.6407 23.3119L27.3106 24.4125L27.4252 24.2387L27.5015 24.0449L25.6407 23.3119ZM27.5007 21.9619L27.9764 23.9045L27.991 23.9009L28.0055 23.8971L27.5007 21.9619ZM30.0807 22.0519L30.8077 20.1887L30.7954 20.1839L30.7829 20.1792L30.0807 22.0519ZM31.1907 23.6119L33.0987 24.2115L33.157 24.026L33.1784 23.8328L31.1907 23.6119ZM30.3507 26.1919L28.4533 25.5594L28.4495 25.5709L28.4458 25.5823L30.3507 26.1919ZM29.4207 29.2819L31.3394 29.8462L31.3423 29.8364L31.3451 29.8265L29.4207 29.2819ZM28.0407 35.0419L30.0135 35.3707L30.0231 35.3131L30.0293 35.255L28.0407 35.0419ZM26.5407 37.9519L26.1484 35.9907L26.5407 37.9519ZM25.9707 38.0419L26.0615 40.0398L26.1267 40.0369L26.1915 40.0297L25.9707 38.0419ZM25.1307 38.4019L23.3749 37.4442L25.1307 38.4019ZM24.5307 38.8819L23.858 36.9984L23.7997 37.0192L23.7428 37.0436L24.5307 38.8819ZM23.6007 39.0319L23.7181 37.0353L23.6594 37.0319H23.6007V39.0319ZM22.6107 38.7919L23.4623 36.9823L23.4177 36.9613L23.3722 36.9425L22.6107 38.7919ZM21.7407 38.1619L20.1968 39.4333L20.2093 39.4485L20.2222 39.4635L21.7407 38.1619ZM21.4107 35.4319L23.3272 36.0035L23.3685 35.8652L23.3895 35.7224L21.4107 35.4319ZM23.8407 27.1219L25.7059 27.8436L25.7101 27.8326L25.7142 27.8217L23.8407 27.1219ZM31.3107 18.8119L31.7106 20.7715L31.9036 20.7321L32.0851 20.6559L31.3107 18.8119ZM28.9107 18.6319L27.9695 20.3966L27.9814 20.4029L27.9934 20.4091L28.9107 18.6319ZM27.8607 17.4919L25.9063 17.9167L25.9083 17.9259L25.9104 17.9351L27.8607 17.4919ZM28.2807 16.0819L29.8488 17.3233L29.8717 17.2944L29.8935 17.2646L28.2807 16.0819ZM30.2607 14.9119L30.0617 12.9218L29.96 12.932L29.8599 12.9525L30.2607 14.9119ZM31.7907 14.9719L31.2025 16.8834L31.4019 16.9448L31.6096 16.9637L31.7907 14.9719ZM33.0807 15.8419L31.214 16.5598L31.2858 16.7467L31.3933 16.9156L33.0807 15.8419ZM33.1407 17.3419L31.3024 16.554L31.2903 16.5821L31.2792 16.6106L33.1407 17.3419ZM27.5015 24.0449C27.4944 24.063 27.483 24.0828 27.4704 24.0988C27.4585 24.1138 27.4558 24.1122 27.4755 24.098C27.5206 24.0652 27.6625 23.9814 27.9764 23.9045L27.0249 20.0193C25.6992 20.3439 24.3682 21.0854 23.7798 22.5788L27.5015 24.0449ZM28.0055 23.8971C28.5734 23.749 29.0078 23.7856 29.3784 23.9245L30.7829 20.1792C29.5535 19.7182 28.268 19.6948 26.9958 20.0267L28.0055 23.8971ZM29.3536 23.915C29.5337 23.9853 29.455 23.998 29.3436 23.8414C29.2857 23.7601 29.2419 23.6636 29.2188 23.5648C29.1967 23.4701 29.2012 23.4064 29.2029 23.391L33.1784 23.8328C33.2649 23.0549 33.1114 22.2372 32.6027 21.5224C32.1213 20.8457 31.4476 20.4384 30.8077 20.1887L29.3536 23.915ZM29.2827 23.0122C29.0673 23.6975 28.7912 24.5458 28.4533 25.5594L32.248 26.8243C32.5902 25.7979 32.874 24.9263 33.0987 24.2115L29.2827 23.0122ZM28.4458 25.5823C28.1186 26.6049 27.8021 27.6566 27.4963 28.7372L31.3451 29.8265C31.6392 28.7872 31.9427 27.7789 32.2555 26.8014L28.4458 25.5823ZM27.5019 28.7176C26.7038 31.4313 26.1935 33.509 26.052 34.8288L30.0293 35.255C30.1279 34.3348 30.5376 32.5724 31.3394 29.8462L27.5019 28.7176ZM26.0679 34.7131C25.9323 35.5263 25.7752 35.9852 25.6629 36.203C25.5418 36.4381 25.6413 36.0921 26.1484 35.9907L26.9329 39.913C28.14 39.6716 28.8396 38.7707 29.2184 38.0357C29.6061 37.2836 29.849 36.3575 30.0135 35.3707L26.0679 34.7131ZM26.1484 35.9907C25.9982 36.0208 25.8657 36.0412 25.7498 36.0541L26.1915 40.0297C26.4356 40.0025 26.6831 39.963 26.9329 39.913L26.1484 35.9907ZM25.8798 36.044C25.2726 36.0716 24.0233 36.2553 23.3749 37.4442L26.8865 39.3596C26.6884 39.7227 26.3992 39.9077 26.2185 39.9852C26.0627 40.052 25.9837 40.0434 26.0615 40.0398L25.8798 36.044ZM23.3749 37.4442C23.4448 37.316 23.5388 37.2072 23.6413 37.1252C23.7397 37.0464 23.8222 37.0112 23.858 36.9984L25.2033 40.7654C25.8547 40.5327 26.4888 40.0886 26.8865 39.3596L23.3749 37.4442ZM23.7428 37.0436C23.7496 37.0407 23.756 37.0385 23.7613 37.0369C23.7639 37.0362 23.7659 37.0357 23.7674 37.0354C23.7689 37.035 23.7697 37.0349 23.7697 37.0349C23.7697 37.0349 23.7688 37.0351 23.7668 37.0353C23.7649 37.0354 23.762 37.0357 23.7578 37.0359C23.7496 37.0363 23.7365 37.0364 23.7181 37.0353L23.4832 41.0284C24.0962 41.0645 24.7209 40.9763 25.3185 40.7202L23.7428 37.0436ZM23.6007 37.0319C23.6221 37.0319 23.5819 37.0386 23.4623 36.9823L21.7591 40.6015C22.3194 40.8652 22.9393 41.0319 23.6007 41.0319V37.0319ZM23.3722 36.9425C23.3251 36.9232 23.2943 36.9012 23.2592 36.8603L20.2222 39.4635C20.6671 39.9825 21.2162 40.3806 21.8492 40.6412L23.3722 36.9425ZM23.2845 36.8905C23.2573 36.8574 23.2349 36.8216 23.2237 36.7294C23.2099 36.6149 23.2133 36.3855 23.3272 36.0035L19.4941 34.8603C19.0372 36.3921 19.0728 38.0684 20.1968 39.4333L23.2845 36.8905ZM23.3895 35.7224C23.6785 33.753 24.4304 31.1403 25.7059 27.8436L21.9754 26.4002C20.6509 29.8235 19.7828 32.7508 19.4319 35.1414L23.3895 35.7224ZM25.7142 27.8217C26.312 26.2211 26.8504 25.1108 27.3106 24.4125L23.9707 22.2113C23.271 23.273 22.6093 24.7027 21.9671 26.4221L25.7142 27.8217ZM30.9107 16.8523C30.1887 16.9996 29.8991 16.8914 29.828 16.8546L27.9934 20.4091C29.1623 21.0124 30.4726 21.0241 31.7106 20.7715L30.9107 16.8523ZM29.8518 16.8672C29.7746 16.826 29.7241 16.7928 29.6939 16.7705C29.6638 16.7483 29.659 16.7409 29.6693 16.7519C29.6801 16.7637 29.7066 16.7952 29.7359 16.8484C29.7658 16.903 29.7932 16.9708 29.8109 17.0486L25.9104 17.9351C26.1928 19.1778 27.1194 19.9432 27.9695 20.3966L29.8518 16.8672ZM29.815 17.067C29.826 17.1178 29.8313 17.1738 29.8288 17.231C29.8264 17.2877 29.8169 17.3336 29.8074 17.3653C29.7893 17.4262 29.7787 17.4117 29.8488 17.3233L26.7126 14.8405C26.0811 15.6381 25.643 16.7053 25.9063 17.9167L29.815 17.067ZM29.8935 17.2646C29.9816 17.1445 30.1618 16.9735 30.6615 16.8713L29.8599 12.9525C28.5996 13.2102 27.4597 13.8193 26.6679 14.8992L29.8935 17.2646ZM30.4597 16.902C30.8537 16.8626 31.0582 16.8519 31.1307 16.8519V12.8519C30.8431 12.8519 30.4676 12.8812 30.0617 12.9218L30.4597 16.902ZM31.1307 16.8519C31.1021 16.8519 31.0828 16.8503 31.0742 16.8495C31.0654 16.8486 31.0647 16.8481 31.0729 16.8496C31.0905 16.8528 31.1326 16.8619 31.2025 16.8834L32.3788 13.0603C32.0152 12.9484 31.5842 12.8519 31.1307 12.8519V16.8519ZM31.6096 16.9637C31.6951 16.9714 31.6213 16.9812 31.4899 16.8925C31.4241 16.8481 31.3613 16.7903 31.3088 16.7229C31.2572 16.6565 31.2284 16.5974 31.214 16.5598L34.9474 15.1239C34.7117 14.5111 34.307 13.9678 33.7264 13.5762C33.165 13.1976 32.5462 13.0323 31.9717 12.9801L31.6096 16.9637ZM31.3933 16.9156C31.3762 16.8887 31.3543 16.8468 31.3366 16.7912C31.3187 16.7352 31.3093 16.6787 31.3073 16.6268C31.3031 16.5216 31.3301 16.4893 31.3024 16.554L34.979 18.1297C35.4288 17.0802 35.4664 15.8657 34.768 14.7681L31.3933 16.9156ZM31.2792 16.6106C31.3293 16.483 31.3785 16.4795 31.2657 16.5701C31.1498 16.6632 30.9254 16.8045 30.5362 16.9679L32.0851 20.6559C33.2168 20.1806 34.4759 19.4128 35.0022 18.0732L31.2792 16.6106Z" fill="white" mask="url(#path-4-outside-1_2001_2)"/>
</svg>
